<svg width="232" height="988" viewBox="0 0 232 988" fill="none" xmlns="http://www.w3.org/2000/svg">
<g clipPath="url(#clip0_5452_2403)">
<rect width="232" height="988" fill="#0E1116"/>
<g opacity="0.8" filter="url(#filter0_f_5452_2403)">
<ellipse cx="39" cy="890" rx="147" ry="146" transform="rotate(-90 39 890)" fill="#255D6A"/>
</g>
<g opacity="0.5" filter="url(#filter1_f_5452_2403)">
<ellipse cx="20.5" cy="29.5" rx="110.5" ry="110.5" transform="rotate(-90 20.5 29.5)" fill="#255D6A"/>
</g>
<g opacity="0.8" filter="url(#filter2_f_5452_2403)">
<ellipse cx="216.5" cy="29.5" rx="110.5" ry="110.5" transform="rotate(-90 216.5 29.5)" fill="#2A2879"/>
</g>
<g opacity="0.8" filter="url(#filter3_f_5452_2403)">
<circle cx="212.5" cy="412.5" r="147.5" transform="rotate(-90 212.5 412.5)" fill="#2A2879"/>
</g>
</g>
<g opacity="0.9">
<path d="M71 67.3L70.4 66.8C68.4 64.9 67 63.7 67 62.2C67 61 68 60 69.2 60C69.9 60 70.6 60.3 71 60.8C71.4 60.3 72.1 60 72.8 60C74 60 75 60.9 75 62.2C75 63.7 73.6 64.9 71.6 66.8L71 67.3Z" fill="#50B2C0"/>
<path d="M70 46C71.1 46 72 46.9 72 48V57.08L71 57L70 57.08V48H65V56L62.5 53.75L60 56V48H58V64H65.08C65.2 64.72 65.45 65.39 65.8 66H58C56.9 66 56 65.1 56 64V48C56 46.9 56.9 46 58 46H70Z" fill="#8381D9"/>
<path d="M85.7861 63V48.9H91.9461C93.4261 48.9 94.5728 49.2267 95.3861 49.88C96.1994 50.52 96.6061 51.4133 96.6061 52.56C96.6061 53.32 96.4128 53.9733 96.0261 54.52C95.6394 55.0667 95.1061 55.4667 94.4261 55.72C95.2261 55.9467 95.8461 56.3467 96.2861 56.92C96.7394 57.48 96.9661 58.1933 96.9661 59.06C96.9661 60.3133 96.5394 61.2867 95.6861 61.98C94.8461 62.66 93.6728 63 92.1661 63H85.7861ZM88.2461 54.88H91.5061C93.2528 54.88 94.1261 54.2067 94.1261 52.86C94.1261 51.5133 93.2528 50.84 91.5061 50.84H88.2461V54.88ZM88.2461 61.06H91.8461C93.6061 61.06 94.4861 60.3533 94.4861 58.94C94.4861 57.5267 93.6061 56.82 91.8461 56.82H88.2461V61.06ZM103.776 63.2C102.762 63.2 101.882 62.9933 101.136 62.58C100.389 62.1667 99.809 61.58 99.3956 60.82C98.9823 60.0467 98.7756 59.14 98.7756 58.1C98.7756 57.06 98.9823 56.16 99.3956 55.4C99.809 54.64 100.389 54.0533 101.136 53.64C101.882 53.2267 102.762 53.02 103.776 53.02C104.789 53.02 105.669 53.2267 106.416 53.64C107.162 54.0533 107.742 54.64 108.156 55.4C108.569 56.16 108.776 57.06 108.776 58.1C108.776 59.14 108.569 60.0467 108.156 60.82C107.742 61.58 107.162 62.1667 106.416 62.58C105.669 62.9933 104.789 63.2 103.776 63.2ZM103.776 61.3C104.522 61.3 105.122 61.0333 105.576 60.5C106.029 59.9533 106.256 59.1533 106.256 58.1C106.256 57.0333 106.029 56.24 105.576 55.72C105.122 55.1867 104.522 54.92 103.776 54.92C103.029 54.92 102.429 55.1867 101.976 55.72C101.522 56.24 101.296 57.0333 101.296 58.1C101.296 59.1533 101.522 59.9533 101.976 60.5C102.429 61.0333 103.029 61.3 103.776 61.3ZM115.299 63.2C114.286 63.2 113.406 62.9933 112.659 62.58C111.912 62.1667 111.332 61.58 110.919 60.82C110.506 60.0467 110.299 59.14 110.299 58.1C110.299 57.06 110.506 56.16 110.919 55.4C111.332 54.64 111.912 54.0533 112.659 53.64C113.406 53.2267 114.286 53.02 115.299 53.02C116.312 53.02 117.192 53.2267 117.939 53.64C118.686 54.0533 119.266 54.64 119.679 55.4C120.092 56.16 120.299 57.06 120.299 58.1C120.299 59.14 120.092 60.0467 119.679 60.82C119.266 61.58 118.686 62.1667 117.939 62.58C117.192 62.9933 116.312 63.2 115.299 63.2ZM115.299 61.3C116.046 61.3 116.646 61.0333 117.099 60.5C117.552 59.9533 117.779 59.1533 117.779 58.1C117.779 57.0333 117.552 56.24 117.099 55.72C116.646 55.1867 116.046 54.92 115.299 54.92C114.552 54.92 113.952 55.1867 113.499 55.72C113.046 56.24 112.819 57.0333 112.819 58.1C112.819 59.1533 113.046 59.9533 113.499 60.5C113.952 61.0333 114.552 61.3 115.299 61.3ZM122.363 63V48.9H124.863V57.38H124.903L128.843 53.22H131.863L127.423 57.9L132.143 63H129.083L124.903 58.64H124.863V63H122.363ZM137.205 63L132.225 48.9H134.865L138.365 59.3L142.045 48.9H143.945L147.545 59.44L151.145 48.9H153.645L148.625 63H146.505L142.925 52.82L139.325 63H137.205ZM155.191 51.12V48.68H157.991V51.12H155.191ZM155.351 63V53.22H157.851V63H155.351ZM164.028 63.2C163.202 63.2 162.428 63.1 161.708 62.9C160.988 62.7 160.388 62.4133 159.908 62.04L160.548 60.4C161.042 60.7333 161.595 60.9933 162.208 61.18C162.822 61.3533 163.435 61.44 164.048 61.44C164.688 61.44 165.162 61.3333 165.468 61.12C165.788 60.8933 165.948 60.6 165.948 60.24C165.948 59.68 165.535 59.32 164.708 59.16L162.708 58.78C161.015 58.46 160.168 57.58 160.168 56.14C160.168 55.5 160.342 54.9467 160.688 54.48C161.048 54.0133 161.542 53.6533 162.168 53.4C162.795 53.1467 163.515 53.02 164.328 53.02C165.022 53.02 165.688 53.12 166.328 53.32C166.968 53.5067 167.515 53.7933 167.968 54.18L167.288 55.82C166.902 55.5 166.435 55.2467 165.888 55.06C165.355 54.8733 164.842 54.78 164.348 54.78C163.695 54.78 163.208 54.8933 162.888 55.12C162.582 55.3467 162.428 55.6467 162.428 56.02C162.428 56.6067 162.808 56.9667 163.568 57.1L165.568 57.48C166.435 57.64 167.088 57.9333 167.528 58.36C167.982 58.7867 168.208 59.36 168.208 60.08C168.208 61.0533 167.828 61.82 167.068 62.38C166.308 62.9267 165.295 63.2 164.028 63.2ZM175.034 63.2C173.927 63.2 172.974 62.9933 172.174 62.58C171.374 62.1667 170.754 61.58 170.314 60.82C169.887 60.06 169.674 59.16 169.674 58.12C169.674 57.1067 169.881 56.22 170.294 55.46C170.721 54.7 171.301 54.1067 172.034 53.68C172.781 53.24 173.627 53.02 174.574 53.02C175.961 53.02 177.054 53.46 177.854 54.34C178.667 55.22 179.074 56.42 179.074 57.94V58.68H172.074C172.261 60.4267 173.261 61.3 175.074 61.3C175.621 61.3 176.167 61.22 176.714 61.06C177.261 60.8867 177.761 60.62 178.214 60.26L178.914 61.94C178.447 62.3267 177.861 62.6333 177.154 62.86C176.447 63.0867 175.741 63.2 175.034 63.2ZM174.674 54.72C173.941 54.72 173.347 54.9467 172.894 55.4C172.441 55.8533 172.167 56.4667 172.074 57.24H176.994C176.941 56.4267 176.714 55.8067 176.314 55.38C175.927 54.94 175.381 54.72 174.674 54.72Z" fill="url(#paint0_linear_5452_2403)"/>
</g>
<defs>
<filter id="filter0_f_5452_2403" x="-631.81" y="218.19" width="1341.62" height="1343.62" filterUnits="userSpaceOnUse" color-interpolation-filters="sRGB">
<feFlood flood-opacity="0" result="BackgroundImageFix"/>
<feBlend mode="normal" in="SourceGraphic" in2="BackgroundImageFix" result="shape"/>
<feGaussianBlur stdDeviation="262.405" result="effect1_foregroundBlur_5452_2403"/>
</filter>
<filter id="filter1_f_5452_2403" x="-279.31" y="-270.31" width="599.62" height="599.62" filterUnits="userSpaceOnUse" color-interpolation-filters="sRGB">
<feFlood flood-opacity="0" result="BackgroundImageFix"/>
<feBlend mode="normal" in="SourceGraphic" in2="BackgroundImageFix" result="shape"/>
<feGaussianBlur stdDeviation="94.655" result="effect1_foregroundBlur_5452_2403"/>
</filter>
<filter id="filter2_f_5452_2403" x="-83.31" y="-270.31" width="599.62" height="599.62" filterUnits="userSpaceOnUse" color-interpolation-filters="sRGB">
<feFlood flood-opacity="0" result="BackgroundImageFix"/>
<feBlend mode="normal" in="SourceGraphic" in2="BackgroundImageFix" result="shape"/>
<feGaussianBlur stdDeviation="94.655" result="effect1_foregroundBlur_5452_2403"/>
</filter>
<filter id="filter3_f_5452_2403" x="-388.31" y="-188.31" width="1201.62" height="1201.62" filterUnits="userSpaceOnUse" color-interpolation-filters="sRGB">
<feFlood flood-opacity="0" result="BackgroundImageFix"/>
<feBlend mode="normal" in="SourceGraphic" in2="BackgroundImageFix" result="shape"/>
<feGaussianBlur stdDeviation="226.655" result="effect1_foregroundBlur_5452_2403"/>
</filter>
<linearGradient id="paint0_linear_5452_2403" x1="84" y1="56.3137" x2="180" y2="56.3137" gradientUnits="userSpaceOnUse">
<stop stop-color="#7FD1CC"/>
<stop offset="1" stop-color="#9694F5"/>
</linearGradient>
<clipPath id="clip0_5452_2403">
<rect width="232" height="988" fill="white"/>
</clipPath>
</defs>
</svg>
