<svg width="16" height="16" viewBox="0 0 16 16" fill="none" xmlns="http://www.w3.org/2000/svg">
<g clipPath="url(#clip0_526_2463)">
<path fillRule="evenodd" clipRule="evenodd" d="M7.41554 1.18137C7.58681 1.06141 7.79085 0.99707 7.99995 0.99707C8.20905 0.99707 8.41309 1.06141 8.58436 1.18137C8.75331 1.29969 8.88232 1.46647 8.95439 1.6596L10.3272 5.11645L10.3313 5.12714C10.3325 5.13055 10.3348 5.13352 10.3377 5.13569C10.3406 5.13786 10.3441 5.13912 10.3477 5.13934L10.3508 5.13952L14.0383 5.37703C14.9956 5.43918 15.3227 6.63743 14.626 7.21656C14.6259 7.21667 14.6258 7.21678 14.6257 7.21689L11.8015 9.57246L11.7998 9.57383C11.7935 9.57908 11.7887 9.58602 11.7861 9.59385C11.7836 9.60147 11.7833 9.60963 11.7851 9.61744C11.7851 9.61765 11.7852 9.61787 11.7852 9.61808L12.697 13.2027C12.9178 14.0742 11.9768 14.859 11.1582 14.3426L11.1569 14.3418L8.00695 12.3418C8.00494 12.3406 8.00233 12.3397 7.99995 12.3397C7.99757 12.3397 7.99525 12.3404 7.99324 12.3417L7.99246 12.3422L5.06214 14.1978C5.06199 14.1979 5.06183 14.198 5.06168 14.1981C4.16368 14.769 3.1265 13.901 3.37165 12.9402C3.37169 12.94 3.37161 12.9403 3.37165 12.9402L4.21467 9.61808C4.21472 9.61789 4.21476 9.6177 4.21481 9.61751C4.21664 9.60968 4.21628 9.60149 4.21376 9.59385C4.21118 9.58602 4.20644 9.57908 4.20008 9.57383L4.19844 9.57246L1.37425 7.21689C1.37412 7.21677 1.37398 7.21666 1.37385 7.21655C0.677205 6.63742 1.00408 5.4392 1.9613 5.37704L5.65216 5.13933C5.6558 5.13911 5.65929 5.13786 5.66222 5.13569C5.66515 5.13352 5.66738 5.13055 5.66865 5.12714L5.67275 5.11645L7.04551 1.6596C7.11759 1.46648 7.24659 1.29969 7.41554 1.18137ZM7.99995 1.99707C7.9961 1.99707 7.99235 1.99825 7.9892 2.00046C7.98604 2.00267 7.98365 2.00579 7.98233 2.00941C7.98067 2.01398 7.97894 2.01852 7.97715 2.02303L6.6039 5.48112C6.53469 5.66406 6.41425 5.82326 6.25692 5.93964C6.09828 6.05699 5.90898 6.12574 5.71203 6.13754L2.0261 6.37494C2.02605 6.37494 2.02616 6.37494 2.0261 6.37494C2.01882 6.37543 2.01582 6.37668 2.01576 6.3767C2.01553 6.37679 2.01535 6.37685 2.01471 6.37739C2.01289 6.37893 2.00674 6.38544 2.0026 6.39883C1.99844 6.41227 1.99906 6.4239 2.00084 6.43064C2.00162 6.4336 2.00261 6.43575 2.00377 6.43759C2.00483 6.43926 2.0073 6.44274 2.01315 6.4476L2.01396 6.44827L4.83732 8.80316C4.83765 8.80343 4.83797 8.8037 4.8383 8.80397C4.98937 8.92919 5.10209 9.09448 5.16351 9.28086C5.22507 9.46765 5.2326 9.66803 5.18524 9.8589L5.18459 9.86147L4.34063 13.1873C4.32257 13.258 4.34749 13.3128 4.39316 13.3475C4.41653 13.3652 4.44014 13.3729 4.4588 13.3742C4.47423 13.3753 4.4956 13.373 4.52526 13.3542L7.45666 11.4978C7.45692 11.4977 7.45718 11.4975 7.45745 11.4973C7.61966 11.3944 7.80782 11.3397 7.99995 11.3397C8.19228 11.3397 8.38063 11.3945 8.54296 11.4976C8.54305 11.4977 8.54286 11.4976 8.54296 11.4976L11.6917 13.4968C11.6918 13.4969 11.6916 13.4968 11.6917 13.4968C11.6974 13.5004 11.7011 13.5018 11.7021 13.5021C11.7035 13.5018 11.7078 13.5006 11.7137 13.4961C11.7213 13.4904 11.7261 13.4832 11.7283 13.4774C11.7293 13.4748 11.73 13.4719 11.7302 13.4683C11.7304 13.465 11.7303 13.4587 11.7278 13.4489C11.7278 13.4488 11.7278 13.4489 11.7278 13.4489L10.8147 9.85891C10.7673 9.66803 10.7748 9.46765 10.8364 9.28086C10.8978 9.09445 11.0106 8.92914 11.1617 8.80391C11.162 8.80366 11.1623 8.80341 11.1626 8.80316L13.9868 6.4476C13.9926 6.44274 13.9951 6.43926 13.9961 6.43759C13.9973 6.43575 13.9983 6.4336 13.9991 6.43064C14.0008 6.4239 14.0015 6.41227 13.9973 6.39883C13.9932 6.38544 13.987 6.37893 13.9852 6.37739C13.9846 6.37688 13.9844 6.3768 13.9842 6.37672C13.9841 6.37669 13.9812 6.37544 13.974 6.37495C13.9739 6.37495 13.974 6.37496 13.974 6.37495L10.2897 6.13765C10.2891 6.13761 10.2885 6.13758 10.2879 6.13754C10.0909 6.12574 9.90163 6.05699 9.74298 5.93964C9.58566 5.82326 9.46522 5.66406 9.396 5.48112L8.02275 2.02303C8.02096 2.01852 8.01923 2.01398 8.01757 2.00941C8.01626 2.0058 8.01386 2.00267 8.01071 2.00046C8.00755 1.99825 8.0038 1.99707 7.99995 1.99707Z" fill="#8381D9"/>
</g>
<defs>
<clipPath id="clip0_526_2463">
<rect width="16" height="16" fill="white" transform="translate(0 0.000976562)"/>
</clipPath>
</defs>
</svg>
